<?xml version="1.0" encoding="UTF-8"?>
<svg width="104px" height="104px" viewBox="0 0 104 104" version="1.1" xmlns="http://www.w3.org/2000/svg" xmlns:xlink="http://www.w3.org/1999/xlink">
    <!-- Generator: Sketch 46.2 (44496) - http://www.bohemiancoding.com/sketch -->
    <title>Group 11</title>
    <desc>Created with Sketch.</desc>
    <defs>
        <linearGradient x1="79.1330963%" y1="14.6433993%" x2="30.8634912%" y2="85.5806047%" id="linearGradient-1">
            <stop stop-color="#FFD900" offset="0%"></stop>
            <stop stop-color="#F0AB00" offset="100%"></stop>
        </linearGradient>
        <path d="M44,4.33680869e-19 L44,4.33680869e-19 L44,0 C68.300529,-4.46387718e-15 88,19.699471 88,44 L88,44 L88,44 L88,44 C88,68.300529 68.300529,88 44,88 L44,88 L44,88 C19.699471,88 -1.83403639e-14,68.300529 -2.13162821e-14,44 L0,44 L0,44 C-2.97591812e-15,19.699471 19.699471,1.86747319e-14 44,1.42108547e-14 Z" id="path-2"></path>
        <filter x="-19.3%" y="-11.4%" width="131.8%" height="131.8%" filterUnits="objectBoundingBox" id="filter-3">
            <feOffset dx="-3" dy="4" in="SourceAlpha" result="shadowOffsetOuter1"></feOffset>
            <feGaussianBlur stdDeviation="4" in="shadowOffsetOuter1" result="shadowBlurOuter1"></feGaussianBlur>
            <feColorMatrix values="0 0 0 0 0.961710989   0 0 0 0 0.65036732   0 0 0 0 0.138542295  0 0 0 0.419525589 0" type="matrix" in="shadowBlurOuter1"></feColorMatrix>
        </filter>
        <filter x="-18.8%" y="-10.8%" width="130.7%" height="130.7%" filterUnits="objectBoundingBox" id="filter-4">
            <feMorphology radius="1" operator="erode" in="SourceAlpha" result="shadowSpreadInner1"></feMorphology>
            <feGaussianBlur stdDeviation="5" in="shadowSpreadInner1" result="shadowBlurInner1"></feGaussianBlur>
            <feOffset dx="0" dy="0" in="shadowBlurInner1" result="shadowOffsetInner1"></feOffset>
            <feComposite in="shadowOffsetInner1" in2="SourceAlpha" operator="arithmetic" k2="-1" k3="1" result="shadowInnerInner1"></feComposite>
            <feColorMatrix values="0 0 0 0 0.960784314   0 0 0 0 0.650980392   0 0 0 0 0.137254902  0 0 0 0.324671649 0" type="matrix" in="shadowInnerInner1"></feColorMatrix>
        </filter>
        <linearGradient x1="50%" y1="53.048401%" x2="50%" y2="123.162219%" id="linearGradient-5">
            <stop stop-color="#FFFFFF" offset="0%"></stop>
            <stop stop-color="#FEEFAE" offset="100%"></stop>
        </linearGradient>
    </defs>
    <g id="Page-1" stroke="none" stroke-width="1" fill="none" fill-rule="evenodd">
        <g id="01首页／无作业状态" transform="translate(-69.000000, -336.000000)">
            <g id="Group-11" transform="translate(80.000000, 340.000000)">
                <g id="Rectangle-14">
                    <use fill="black" fill-opacity="1" filter="url(#filter-3)" xlink:href="#path-2"></use>
                    <use fill="url(#linearGradient-1)" fill-rule="evenodd" xlink:href="#path-2"></use>
                    <use fill="black" fill-opacity="1" filter="url(#filter-4)" xlink:href="#path-2"></use>
                </g>
                <g id="Group-10" transform="translate(25.000000, 19.000000)">
                    <path d="M26,6 L26,8 C26,9.65685425 27.3431458,11 29,11 C30.6568542,11 32,9.65685425 32,8 L32,6 L33,6 C35.7614237,6 38,8.23857625 38,11 L38,45 C38,47.7614237 35.7614237,50 33,50 L5,50 C2.23857625,50 3.38176876e-16,47.7614237 0,45 L0,11 L0,11 C-3.38176876e-16,8.23857625 2.23857625,6 5,6 L5,6 L6,6 L6,8 C6,9.65685425 7.34314575,11 9,11 L9,11 C10.6568542,11 12,9.65685425 12,8 L12,6 L16,6 L16,8 C16,9.65685425 17.3431458,11 19,11 C20.6568542,11 22,9.65685425 22,8 L22,6 L26,6 Z M9.97619048,18.8333333 L9.97619048,18.8333333 C8.96366843,18.8333333 8.14285714,19.6541446 8.14285714,20.6666667 C8.14285714,21.6791887 8.96366843,22.5 9.97619048,22.5 L28.0238095,22.5 C29.0363316,22.5 29.8571429,21.6791887 29.8571429,20.6666667 L29.8571429,20.6666667 C29.8571429,19.6541446 29.0363316,18.8333333 28.0238095,18.8333333 L28.0238095,18.8333333 L9.97619048,18.8333333 Z M9.97619048,28 C8.96366843,28 8.14285714,28.8208113 8.14285714,29.8333333 C8.14285714,30.8458554 8.96366843,31.6666667 9.97619048,31.6666667 L28.0238095,31.6666667 C29.0363316,31.6666667 29.8571429,30.8458554 29.8571429,29.8333333 C29.8571429,28.8208113 29.0363316,28 28.0238095,28 L9.97619048,28 Z M9.97619048,37.1666667 C8.96366843,37.1666667 8.14285714,37.987478 8.14285714,39 C8.14285714,40.012522 8.96366843,40.8333333 9.97619048,40.8333333 L28.0238095,40.8333333 C29.0363316,40.8333333 29.8571429,40.012522 29.8571429,39 C29.8571429,37.987478 29.0363316,37.1666667 28.0238095,37.1666667 L28.0238095,37.1666667 L9.97619048,37.1666667 Z" id="Combined-Shape" fill="url(#linearGradient-5)"></path>
                    <rect id="Rectangle-6-Copy-12" fill="#FFFFFF" transform="translate(9.000000, 5.000000) rotate(90.000000) translate(-9.000000, -5.000000) " x="4" y="3" width="10" height="4" rx="2"></rect>
                    <rect id="Rectangle-6-Copy-13" fill="#FFFFFF" transform="translate(19.000000, 5.000000) rotate(90.000000) translate(-19.000000, -5.000000) " x="14" y="3" width="10" height="4" rx="2"></rect>
                    <rect id="Rectangle-6-Copy-14" fill="#FFFFFF" transform="translate(29.000000, 5.000000) rotate(90.000000) translate(-29.000000, -5.000000) " x="24" y="3" width="10" height="4" rx="2"></rect>
                </g>
            </g>
        </g>
    </g>
</svg>