<?xml version="1.0" encoding="UTF-8"?>
<svg width="44px" height="45px" viewBox="0 0 44 45" version="1.1" xmlns="http://www.w3.org/2000/svg" xmlns:xlink="http://www.w3.org/1999/xlink">
    <!-- Generator: Sketch 46.2 (44496) - http://www.bohemiancoding.com/sketch -->
    <title>Page 1</title>
    <desc>Created with Sketch.</desc>
    <defs>
        <linearGradient x1="93.9108966%" y1="0%" x2="50%" y2="100%" id="linearGradient-1">
            <stop stop-color="#62D8FE" offset="0%"></stop>
            <stop stop-color="#33B0FC" offset="100%"></stop>
        </linearGradient>
    </defs>
    <g id="Page-1" stroke="none" stroke-width="1" fill="none" fill-rule="evenodd">
        <g id="01首页／无作业状态-copy" transform="translate(-209.000000, -1247.000000)" fill="url(#linearGradient-1)">
            <g id="Group-17" transform="translate(0.000000, 1236.000000)">
                <g id="Group-8">
                    <path d="M211.820788,33.1864643 L211.820788,33.1864643 L211.820788,51 L211.820788,51 C211.820788,53.7614237 214.059365,56 216.820788,56 L221.363909,56 L221.363909,56 C224.125333,56 226.363909,53.7614237 226.363909,51 L226.363909,46.536851 L226.363909,46.536851 C226.363909,43.9709689 228.443968,41.8909105 231.00985,41.8909105 L231.00985,41.8909105 L231.00985,41.8909105 C233.575732,41.8909105 235.65579,43.9709689 235.65579,46.536851 L235.65579,51 L235.65579,51 C235.65579,53.7614237 237.894366,56 240.65579,56 L245.198911,56 L245.198911,56 C247.960335,56 250.198911,53.7614237 250.198911,51 L250.198911,33.1864643 L250.198911,33.1864643 L250.198911,33.1864643 C251.701756,33.1864643 252.920052,31.9681683 252.920052,30.465324 C252.920052,29.6728545 252.574587,28.9197565 251.973931,28.4028229 L246.0096,23.2698305 L246.0096,17.8519972 L246.0096,17.8519972 C246.0096,15.2861151 243.929542,13.2060567 241.36366,13.2060567 L238.784761,13.2060567 L238.784761,13.2060567 C237.643165,13.2060567 236.717719,14.1315026 236.717719,15.2730979 L236.717719,15.2730979 L234.245634,13.1455839 L234.245634,13.1455839 C232.370655,11.5319485 229.597541,11.5319485 227.722562,13.1455839 L210.033303,28.3692268 L210.033303,28.3692268 C208.886215,29.3564279 208.756601,31.0866109 209.743802,32.2336987 C210.264366,32.8385731 211.022753,33.1864643 211.820788,33.1864643 Z" id="Page-1"></path>
                </g>
            </g>
        </g>
    </g>
</svg>