<?xml version="1.0" encoding="UTF-8"?>
<svg width="44px" height="45px" viewBox="0 0 44 45" version="1.1" xmlns="http://www.w3.org/2000/svg" xmlns:xlink="http://www.w3.org/1999/xlink">
    <!-- Generator: Sketch 46.2 (44496) - http://www.bohemiancoding.com/sketch -->
    <title>Page 1</title>
    <desc>Created with Sketch.</desc>
    <defs></defs>
    <g id="Page-1" stroke="none" stroke-width="1" fill="none" fill-rule="evenodd">
        <g id="09个人中心" transform="translate(-207.000000, -1247.000000)" fill="#B3B3B3">
            <path d="M209.820788,1269.18646 L209.820788,1269.18646 L209.820788,1287 L209.820788,1287 C209.820788,1289.76142 212.059365,1292 214.820788,1292 L219.363909,1292 L219.363909,1292 C222.125333,1292 224.363909,1289.76142 224.363909,1287 L224.363909,1282.53685 L224.363909,1282.53685 C224.363909,1279.97097 226.443968,1277.89091 229.00985,1277.89091 L229.00985,1277.89091 L229.00985,1277.89091 C231.575732,1277.89091 233.65579,1279.97097 233.65579,1282.53685 L233.65579,1287 L233.65579,1287 C233.65579,1289.76142 235.894366,1292 238.65579,1292 L243.198911,1292 L243.198911,1292 C245.960335,1292 248.198911,1289.76142 248.198911,1287 L248.198911,1269.18646 L248.198911,1269.18646 L248.198911,1269.18646 C249.701756,1269.18646 250.920052,1267.96817 250.920052,1266.46532 C250.920052,1265.67285 250.574587,1264.91976 249.973931,1264.40282 L244.0096,1259.26983 L244.0096,1253.852 L244.0096,1253.852 C244.0096,1251.28612 241.929542,1249.20606 239.36366,1249.20606 L236.784761,1249.20606 L236.784761,1249.20606 C235.643165,1249.20606 234.717719,1250.1315 234.717719,1251.2731 L234.717719,1251.2731 L232.245634,1249.14558 L232.245634,1249.14558 C230.370655,1247.53195 227.597541,1247.53195 225.722562,1249.14558 L208.033303,1264.36923 L208.033303,1264.36923 C206.886215,1265.35643 206.756601,1267.08661 207.743802,1268.2337 C208.264366,1268.83857 209.022753,1269.18646 209.820788,1269.18646 Z" id="Page-1"></path>
        </g>
    </g>
</svg>