<?xml version="1.0" encoding="UTF-8"?>
<svg width="44px" height="44px" viewBox="0 0 44 44" version="1.1" xmlns="http://www.w3.org/2000/svg" xmlns:xlink="http://www.w3.org/1999/xlink">
    <!-- Generator: Sketch 46.2 (44496) - http://www.bohemiancoding.com/sketch -->
    <title>Page 1</title>
    <desc>Created with Sketch.</desc>
    <defs></defs>
    <g id="Page-1" stroke="none" stroke-width="1" fill="none" fill-rule="evenodd">
        <g id="04首页／滑动2" transform="translate(-501.000000, -1247.000000)">
            <g id="Group-17" transform="translate(0.000000, 1236.000000)">
                <g id="Group-8">
                    <g id="Page-1" transform="translate(501.000000, 11.000000)">
                        <path d="M43.8793114,21.8397086 C43.8806374,27.6445864 41.6209012,33.1023226 37.5193781,37.2080889 C33.4162637,41.3130596 27.9617099,43.5735913 22.1592189,43.5735913 C10.1840229,43.5735913 0.440717507,33.8239212 0.440717507,21.8397086 C0.440717507,9.85549597 10.1837577,0.105825861 22.1592189,0.105825861 C34.136006,0.105825861 43.8790462,9.85549597 43.8790462,21.8397086 L43.8793114,21.8397086 Z" id="Fill-1" fill="#BDBDBD"></path>
                        <path d="M32.0208548,14.0446399 C31.6814037,13.7038629 31.2292444,13.5168997 30.7468526,13.5168997 C30.2631349,13.5168997 29.8109755,13.7038629 29.4731157,14.043314 L26.2366622,17.2781762 C25.5357489,17.9817415 25.5357489,19.1252672 26.2366622,19.8275065 C26.5761133,20.1656316 27.0282726,20.3523296 27.5119904,20.3523296 C27.9943821,20.3523296 28.4462763,20.1656316 28.7873185,19.8261805 L32.0195288,16.5926443 C32.3603058,16.2531932 32.5470039,15.8010338 32.5470039,15.3189073 C32.5470039,14.8349244 32.3603058,14.382765 32.0208548,14.0449051 L32.0208548,14.0446399 Z M22.244665,36.4738669 C16.1714087,36.4738669 12.5594376,32.5974952 12.4090714,32.432278 C11.7617277,31.7242044 11.8113193,30.6252317 12.5196582,29.9781532 C13.2269362,29.3324006 14.320605,29.3809315 14.9684791,30.0823752 C15.084635,30.2059566 17.7527732,32.9992673 22.244665,32.9992673 C26.454123,32.9992673 29.3580205,30.0807841 29.3869269,30.0516125 C30.0562819,29.3671413 31.1549894,29.3493732 31.8402562,30.0163414 C32.5281749,30.6819837 32.5504514,31.7745917 31.8877263,32.4643668 C31.7301998,32.6279928 27.9705144,36.4741321 22.244665,36.4741321 L22.244665,36.4738669 Z" id="Fill-4" fill="#FFFFFF"></path>
                        <path d="M18.0874242,17.2768502 L14.8538879,14.0446399 C14.5144369,13.7038629 14.0622775,13.5168997 13.5785598,13.5168997 C13.094842,13.5168997 12.6426826,13.7038629 12.3032316,14.043314 C11.6009923,14.7466141 11.6009923,15.8890789 12.3032316,16.5923791 L15.5383591,19.8275065 C15.8775449,20.1656316 16.3312955,20.3523296 16.8136872,20.3523296 C17.2960789,20.3523296 17.7495643,20.1653664 18.0890153,19.8275065 C18.7896635,19.1252672 18.7896635,17.9820067 18.0876894,17.2768502 L18.0874242,17.2768502 Z M32.0208282,20.5212596 L28.787292,17.2850713 C28.446515,16.9456203 27.9940904,16.758657 27.5119638,16.758657 C27.0282461,16.758657 26.5760867,16.9456203 26.2366357,17.2850713 C25.5343964,17.9886366 25.5343964,19.1308363 26.2366357,19.8344016 L29.4717632,23.0676727 C29.810949,23.4087149 30.2631084,23.5956782 30.7468261,23.5956782 C31.229483,23.5956782 31.6813772,23.4087149 32.0195023,23.0692639 C32.3602793,22.7298128 32.5469773,22.2776535 32.5469773,21.7955269 C32.5469773,21.311544 32.3600141,20.8593846 32.0208282,20.5215248 L32.0208282,20.5212596 Z" id="Fill-6" fill="#FFFFFF"></path>
                        <path d="M18.0888562,17.2865564 C17.7494052,16.9455142 17.2972458,16.7588161 16.8135281,16.7588161 C16.3298104,16.7588161 15.877651,16.9457794 15.5382,17.2852304 L12.3033377,20.5200927 C11.6010984,21.223658 11.6010984,22.3655925 12.3033377,23.068097 C12.6425235,23.408874 13.0946829,23.5955721 13.5786658,23.5955721 C14.0623836,23.5955721 14.5142777,23.4086088 14.853994,23.069423 L18.0888562,19.8342955 C18.7910955,19.1307302 18.7910955,17.9885305 18.0888562,17.2865564" id="Fill-8" fill="#FFFFFF"></path>
                    </g>
                </g>
            </g>
        </g>
    </g>
</svg>